<svg xmlns="http://www.w3.org/2000/svg" xmlns:xlink="http://www.w3.org/1999/xlink" viewBox="0 0 277.73 285.67"><defs><style>.a{fill:url(#a);}.b{fill:url(#b);}.c{fill:url(#c);}.d{fill:url(#d);}.e{fill:url(#e);}.f{fill:url(#f);}.g{fill:url(#g);}.h{fill:url(#h);}.i{fill:url(#i);}.j{fill:url(#j);}.k{fill:url(#k);}.l{fill:url(#l);}.m{fill:url(#m);}.n{fill:url(#n);}.o{fill:url(#o);}.p{fill:url(#p);}.q{fill:url(#q);}.r{fill:url(#r);}.s{fill:url(#s);}.t{fill:url(#t);}.u{fill:url(#u);}.v{fill:url(#v);}.w{fill:url(#w);}.x{fill:url(#x);}.y{fill:url(#y);}.z{fill:url(#z);}.aa{fill:url(#aa);}.ab{isolation:isolate;font-size:177.25px;fill:#a99b67;font-family:ArialMT, Arial;}</style><linearGradient id="a" x1="221.89" y1="314.12" x2="223.42" y2="-2.54" gradientTransform="matrix(1, 0, 0, -1, -124.57, 299.29)" gradientUnits="userSpaceOnUse"><stop offset="0" stop-color="#a99b67"/><stop offset="0.58" stop-color="#d8c893"/><stop offset="1" stop-color="#a0935f"/></linearGradient><linearGradient id="b" x1="277.17" y1="314.39" x2="278.7" y2="-2.28" xlink:href="#a"/><linearGradient id="c" x1="174.11" y1="313.89" x2="175.64" y2="-2.77" xlink:href="#a"/><linearGradient id="d" x1="343.27" y1="314.7" x2="344.8" y2="-1.96" xlink:href="#a"/><linearGradient id="e" x1="364.26" y1="314.81" x2="365.79" y2="-1.85" xlink:href="#a"/><linearGradient id="f" x1="360.31" y1="314.79" x2="361.84" y2="-1.87" xlink:href="#a"/><linearGradient id="g" x1="357.09" y1="314.77" x2="358.62" y2="-1.89" xlink:href="#a"/><linearGradient id="h" x1="311" y1="314.55" x2="312.53" y2="-2.11" xlink:href="#a"/><linearGradient id="i" x1="194.64" y1="405.3" x2="196.17" y2="88.64" gradientTransform="matrix(1, 0, 0, -1, 0, 389.97)" xlink:href="#a"/><linearGradient id="j" x1="317.5" y1="314.58" x2="319.03" y2="-2.08" xlink:href="#a"/><linearGradient id="k" x1="385.03" y1="314.91" x2="386.56" y2="-1.75" xlink:href="#a"/><linearGradient id="l" x1="351.9" y1="314.75" x2="353.43" y2="-1.91" xlink:href="#a"/><linearGradient id="m" x1="357.82" y1="314.78" x2="359.35" y2="-1.89" xlink:href="#a"/><linearGradient id="n" x1="386.31" y1="314.91" x2="387.84" y2="-1.75" xlink:href="#a"/><linearGradient id="o" x1="218.67" y1="314.1" x2="220.2" y2="-2.56" xlink:href="#a"/><linearGradient id="p" x1="213.03" y1="314.08" x2="214.56" y2="-2.59" xlink:href="#a"/><linearGradient id="q" x1="210.12" y1="314.06" x2="211.65" y2="-2.6" xlink:href="#a"/><linearGradient id="r" x1="19.74" y1="404.45" x2="21.27" y2="87.79" gradientTransform="matrix(1, 0, 0, -1, 0, 389.97)" xlink:href="#a"/><linearGradient id="s" x1="140.69" y1="313.73" x2="142.22" y2="-2.93" xlink:href="#a"/><linearGradient id="t" x1="138.29" y1="313.71" x2="139.82" y2="-2.95" xlink:href="#a"/><linearGradient id="u" x1="131.74" y1="313.68" x2="133.27" y2="-2.98" xlink:href="#a"/><linearGradient id="v" x1="145.78" y1="313.75" x2="147.31" y2="-2.91" xlink:href="#a"/><linearGradient id="w" x1="158.01" y1="313.81" x2="159.54" y2="-2.85" xlink:href="#a"/><linearGradient id="x" x1="35.47" y1="404.53" x2="36.99" y2="87.87" gradientTransform="matrix(1, 0, 0, -1, 0, 389.97)" xlink:href="#a"/><linearGradient id="y" x1="26.81" y1="404.49" x2="28.34" y2="87.83" gradientTransform="matrix(1, 0, 0, -1, 0, 389.97)" xlink:href="#a"/><linearGradient id="z" x1="291.42" y1="314.45" x2="292.95" y2="-2.21" xlink:href="#a"/><linearGradient id="aa" x1="213" y1="314.08" x2="214.53" y2="-2.59" xlink:href="#a"/></defs><path class="a" d="M179.37,59.36A110.06,110.06,0,0,0,20.93,189.43c.37.09.74.2,1.1.32A109.09,109.09,0,0,1,180.29,61C180,60.45,179.65,59.91,179.37,59.36Z" transform="translate(0 -0.03)"/><path class="b" d="M228.19,192.5A109,109,0,0,1,88.66,258a107.8,107.8,0,0,1-10.23-4.29c.18.42.34.84.5,1.27a110,110,0,0,0,146.31-52.86q2.12-4.53,3.83-9.24C228.76,192.76,228.48,192.62,228.19,192.5Z" transform="translate(0 -0.03)"/><path class="c" d="M80.43,272a21.13,21.13,0,0,1-.5,2.23c-1.16,4.23-3.55,8.21-7.39,10.24a12.29,12.29,0,0,1-14.11-2.37A5.19,5.19,0,0,0,62,283.35a4.49,4.49,0,0,0,4.17-3.92,6,6,0,0,0-2.07-4.52c-3.77-3.7-9.54-4.28-14.82-4.34s-10.91.1-15.43-2.63a13.41,13.41,0,0,1-5.09-17.43,21.32,21.32,0,0,1-5,3.75,2.88,2.88,0,0,1-2.88.31c2.43-1.2,3.83-3.9,4.62-6.54a25.67,25.67,0,0,0-.14-14.66c.47,1.31,6.06,15.53,27.35,25.62-10.48-7.69-18.8-18.59-26.45-29.1h0c2.48,3.22,5.91,6.42,10.06,6.73,4.71.36,9.44-.59,14.18-.68s9.82.9,13.07,4.33a15.14,15.14,0,0,0-17.14,7.56h0A19.52,19.52,0,0,1,63,243.76a22.4,22.4,0,0,1,14.39,10.53A26.28,26.28,0,0,1,80.43,272Z" transform="translate(0 -0.03)"/><path class="d" d="M246.11,87.29l.23.2c-3.28,3.87-4.43,9.92-5.35,14.91h0a74.29,74.29,0,0,0-24.81-34.22l-.07.07-.28-.29-.08.08c9.05,11,17,22.7,22.88,35.69-.23-.41-.47-.82-.71-1.22-3.69-6-8.66-11-13.73-15.93A28.55,28.55,0,0,0,217,81.12a12.43,12.43,0,0,0-8.8-1,8,8,0,0,0-5.73,6l-.32-.06a14.13,14.13,0,0,1,5.17-16.92h0c-7.42,1.24-15.69.58-21.41-4.29-4.86-4.13-7.13-10.71-7.22-17.07a35.21,35.21,0,0,1,.41-5.8,66.77,66.77,0,0,1,3.48-12.8c2.18-6,4.7-11.89,6.09-18.1.82-3.7,1-8.08-1.44-10.86l.23-.19a30.32,30.32,0,0,1,21,21.76c1,4.18,1.06,8.53,1.24,12.82s.49,8.66,1.93,12.71,4,7.65,7.77,9.52a29.49,29.49,0,0,1,.44-26.7,14.14,14.14,0,0,0,2.77,9.59c2.34,3.34,5.64,5.88,8.82,8.44s6.36,5.3,8.34,8.88a12.61,12.61,0,0,1,1.25,10,14.08,14.08,0,0,1,18.43,1.5,22.28,22.28,0,0,0-16.63,8.58c-3.83,5-4.09,13.82-2.78,20a23.32,23.32,0,0,1,1.22-7.22C241.82,88.08,244.23,87.54,246.11,87.29Z" transform="translate(0 -0.03)"/><path class="e" d="M239.9,42.67a3.09,3.09,0,1,1-3,3.18v0A3.09,3.09,0,0,1,239.9,42.67Z" transform="translate(0 -0.03)"/><path class="f" d="M236,37.47a.93.93,0,1,1-.91,1,.93.93,0,0,1,.91-1Z" transform="translate(0 -0.03)"/><path class="g" d="M232.77,40.44a1.53,1.53,0,1,1-1.5,1.56A1.53,1.53,0,0,1,232.77,40.44Z" transform="translate(0 -0.03)"/><path class="h" d="M186.83,78.64a2.81,2.81,0,1,1-2.74,2.88v0a2.8,2.8,0,0,1,2.74-2.86Z" transform="translate(0 -0.03)"/><circle class="i" cx="195.11" cy="81.67" r="2.39"/><path class="j" d="M193.32,72.83a1.78,1.78,0,1,1-1.74,1.82v0A1.77,1.77,0,0,1,193.32,72.83Z" transform="translate(0 -0.03)"/><path class="k" d="M257.3,89.57A30.85,30.85,0,0,0,249.63,120q-2.13-6.54-4.27-13.1c-.81-2.49-1.63-5.22-.7-7.67s3.41-4,4.71-6.35c1.7-3,1.09-6.88,2.37-10.11,1.91-4.93,7.95-7.32,13.14-6.37s9.54,4.56,12.85,8.68l-.08.14A5.92,5.92,0,0,0,269,89.36c-.4,2.09.35,4.2.9,6.26s.86,4.39-.26,6.2c-1.56,2.51-5,2.81-7.8,3.66a16.08,16.08,0,0,0-10.18,9.46c-.07.19-.14.38-.2.58a42.76,42.76,0,0,1,6.15-25.66Z" transform="translate(0 -0.03)"/><path class="l" d="M244.75,125a33.27,33.27,0,0,1,.17,9.08,15,15,0,0,0-11.49-11.38c-2.33-.43-4.72-.28-7.05-.63s-4.77-1.33-6-3.34c-.95-1.56-1.11-3.62-2.44-4.87a4.74,4.74,0,0,0-3.71-1,12.66,12.66,0,0,0-3.4,1,11.55,11.55,0,0,1,20.6-4.7c1.07,1.43,1.82,3.14,3.17,4.31s3,1.65,4.52,2.55C242.24,117.84,244.08,121.39,244.75,125Z" transform="translate(0 -0.03)"/><path class="m" d="M228.79,186a7.69,7.69,0,0,1,14.45-1.19h0c.14-2.85-1.68-5.54-3.89-7.42s-5.18-3.39-7.53-5.39-4.19-4.75-3.92-7.72c2.27,1.16,5,1.23,7.57,1.37,2.87.15,6,.51,8.08,2.47h.1c-.71-3.73-4.59-5.92-8.2-7.09s-7.63-2-10.18-4.78-3-6.91-2.68-10.67,1.19-7.5.85-11.27-2.32-7.7-5.89-8.91v-.64a32.94,32.94,0,0,1,29.36,18.76c3,6.56,3.73,14,3.55,21.18a92.19,92.19,0,0,1-5.28,28.42h0a56,56,0,0,1-7.49,15.81,11.78,11.78,0,0,1-1.17-6.81c.2-2.41.73-4.78.83-7.19a10.34,10.34,0,0,0-1.83-6.84c-1.5-1.88-4.3-2.86-6.44-1.74Z" transform="translate(0 -0.03)"/><path class="n" d="M273.6,170.88a3.39,3.39,0,0,1-1,3.39l-.13-.19c-1.26-2.36-4.41-3.06-7-2.53-3.84.76-7.06,3.51-9.19,6.78a35.4,35.4,0,0,0-4.63,9.16h0a113.05,113.05,0,0,0,.43-58.68,43.3,43.3,0,0,1,7.25,13.39l.22-.07a29.83,29.83,0,0,1,11.38-33.84H271c-2.47,5.82-1.19,12.5-.09,18.75s1.88,13.32-1.53,18.77c-2.67,4.26-7.68,7.15-8.81,12l.59-.08a11.94,11.94,0,0,1,10.09-5.38v.06a37.43,37.43,0,0,0-8.57,12.45l.21.08a7.69,7.69,0,0,1,10.13,4,7.4,7.4,0,0,1,.54,1.83Z" transform="translate(0 -0.03)"/><path class="o" d="M95.48,268.29a3.33,3.33,0,1,1-3.33,3.33h0A3.33,3.33,0,0,1,95.48,268.29Z" transform="translate(0 -0.03)"/><path class="p" d="M89.79,260.52a1.68,1.68,0,1,1-1.67,1.69h0A1.69,1.69,0,0,1,89.79,260.52Z" transform="translate(0 -0.03)"/><path class="q" d="M86.92,266.05a2.72,2.72,0,1,1-2.72,2.72,2.72,2.72,0,0,1,2.72-2.72Z" transform="translate(0 -0.03)"/><circle class="r" cx="21.08" cy="262.34" r="1.89"/><path class="s" d="M17.43,254.84a1.38,1.38,0,1,1-1.38,1.38,1.38,1.38,0,0,1,1.38-1.38Z" transform="translate(0 -0.03)"/><path class="t" d="M15,259a2.11,2.11,0,1,1-2.1,2.12v0A2.11,2.11,0,0,1,15,259Z" transform="translate(0 -0.03)"/><path class="u" d="M14.82,228.82c.37,4.7,0,9.58-2.12,13.8s-6.15,7.66-10.84,8.09h0c2.18-.87,2.95-3.7,2.57-6s-1.57-4.49-2-6.83a11.57,11.57,0,0,1,1.73-8.68c1.71-2.54,4.4-4.33,6.05-6.92a10.7,10.7,0,0,0,1.58-6.89A46.6,46.6,0,0,1,14.82,228.82Z" transform="translate(0 -0.03)"/><path class="v" d="M6.43,183.78c.55,2.9,3.28,5.05,6.1,6.08,3,1.09,6.23,1.3,9.23,2.33a18.15,18.15,0,0,1,8.9,6.65c1.12,1.59,2,3.35,3.12,4.92a8.47,8.47,0,0,0,4.5,3.41c-6.92,2.76-15.24,1-21.12-3.64s-9.68-12.13-11-19.71Z" transform="translate(0 -0.03)"/><path class="w" d="M34.61,224.89a1.29,1.29,0,1,1-1.3,1.29A1.31,1.31,0,0,1,34.61,224.89Z" transform="translate(0 -0.03)"/><circle class="x" cx="36.58" cy="217.21" r="1.98"/><circle class="y" cx="27.93" cy="217.21" r="4.4"/><path class="z" d="M81.77,274.93a126.71,126.71,0,0,0,157.52-63.31A127,127,0,0,0,222.74,75.54a123.91,123.91,0,0,1,22.07,35.25A125.5,125.5,0,0,1,217.49,247a131.4,131.4,0,0,1-16,13.6,123.44,123.44,0,0,1-58.16,22.56,126.07,126.07,0,0,1-20.92.77A124,124,0,0,1,81.77,274.93Z" transform="translate(0 -0.03)"/><path class="aa" d="M178,42.23a127.9,127.9,0,0,0-88.86-3.7,125.66,125.66,0,0,0-69,55.3A122.82,122.82,0,0,0,4.43,135.89a129.31,129.31,0,0,0-2,22.48c0,3.77.21,7.53.56,11.28s.84,7.5,1.5,11.21a123.25,123.25,0,0,0,16,42.14c7.66,13.07,16.06,23.65,27.88,33.22-6.1-4.54-10-8.72-15.13-14.34A120.83,120.83,0,0,1,19.3,223.73,125.11,125.11,0,0,1,2.37,181.29,122.18,122.18,0,0,1,0,158.41a131.58,131.58,0,0,1,1.86-22.94A125.32,125.32,0,0,1,17.68,92.4C33.48,66,59.05,45.52,88.45,36.48A128.64,128.64,0,0,1,133.84,31,124.16,124.16,0,0,1,178,42.23Z" transform="translate(0 -0.03)"/><text class="ab" transform="translate(48.81 222.71)">M</text></svg>